<svg width="40px" height="40px" viewBox="0 0 24 24" fill="none" xmlns="http://www.w3.org/2000/svg">
  <path d="M4 21l1.4-5.2a7.9 7.9 0 0012.3 1.1 7.8 7.8 0 001.5-8.4 7.8 7.8 0 00-9.4-4.7 7.9 7.9 0 00-6.2 7.7c0 1.2.2 2.4.7 3.5L4 21z" stroke="white" stroke-width="2"/>
  <path d="M10.9 15.5a5.6 5.6 0 003.5 1.1c.6 0 1.2-.2 1.7-.6.5-.3.9-.7 1.1-1.2.2-.5.3-1.1.2-1.7a5.7 5.7 0 00-1.1-3.5c-.5-.5-1-.9-1.7-1.1s-1.3-.2-2 0a4.3 4.3 0 00-2.5 2.5c-.2.7-.2 1.3 0 2s.6 1.2 1.1 1.7z" stroke="white" stroke-width="2"/>
</svg>
